<?xml version="1.0" standalone="no"?>
<!DOCTYPE svg PUBLIC "-//W3C//DTD SVG 20010904//EN"
 "http://www.w3.org/TR/2001/REC-SVG-20010904/DTD/svg10.dtd">
<svg version="1.0" xmlns="http://www.w3.org/2000/svg"
 width="600.000000pt" height="600.000000pt" viewBox="0 0 600.000000 600.000000"
 preserveAspectRatio="xMidYMid meet">
<metadata>
Created by potrace 1.11, written by Peter Selinger 2001-2013
</metadata>
<g transform="translate(0.000000,600.000000) scale(0.100000,-0.100000)"
fill="#000000" stroke="none">
<path d="M0 4575 l0 -515 2990 0 2990 0 0 515 0 515 -2990 0 -2990 0 0 -515z"/>
<path d="M625 3712 c-46 -30 -66 -57 -72 -100 -6 -45 13 -90 53 -121 19 -15
28 -33 31 -66 l6 -44 -144 -3 -144 -3 -3 -42 -3 -43 142 0 142 0 -7 -377 c-4
-208 -12 -385 -17 -395 -15 -27 -85 -23 -180 12 -96 35 -165 73 -179 100 -16
29 -12 51 10 57 34 9 24 47 -22 87 -73 63 -157 126 -168 126 -6 0 -21 -21 -32
-47 -38 -85 -23 -227 29 -286 17 -18 18 -17 34 4 23 31 51 21 134 -52 82 -71
151 -113 258 -156 43 -18 101 -49 129 -69 l51 -38 19 27 c25 35 81 67 193 112
114 46 195 92 265 149 61 51 92 57 126 25 l22 -21 16 25 c24 36 37 130 26 189
-11 57 -45 138 -58 138 -5 0 -19 -12 -33 -26 -13 -15 -48 -44 -76 -65 -77 -58
-109 -129 -58 -129 18 0 25 -5 25 -19 0 -57 -314 -188 -384 -161 l-26 10 0
238 c0 131 3 307 7 390 l6 151 141 3 141 3 3 42 3 42 -143 3 -143 3 -3 37 c-3
33 2 43 37 75 50 48 61 96 35 149 -25 49 -62 75 -115 81 -32 3 -52 -1 -74 -15z
m105 -72 c24 -24 25 -48 4 -78 -30 -43 -114 -15 -114 38 0 28 35 60 65 60 14
0 34 -9 45 -20z"/>
<path d="M2155 3712 c-46 -30 -66 -57 -72 -100 -6 -45 13 -90 53 -121 19 -15
28 -33 31 -66 l6 -44 -144 -3 -144 -3 -3 -42 -3 -43 142 0 142 0 -7 -377 c-4
-208 -12 -385 -17 -395 -15 -27 -85 -23 -180 12 -96 35 -165 73 -179 100 -16
29 -12 51 10 57 34 9 24 47 -22 87 -73 63 -157 126 -168 126 -6 0 -21 -21 -32
-47 -38 -85 -23 -227 29 -286 17 -18 18 -17 34 4 23 31 51 21 134 -52 82 -71
151 -113 258 -156 43 -18 101 -49 129 -69 l51 -38 19 27 c25 35 81 67 193 112
114 46 195 92 265 149 61 51 92 57 126 25 l22 -21 16 25 c24 36 37 130 26 189
-11 57 -45 138 -58 138 -5 0 -19 -12 -33 -26 -13 -15 -48 -44 -76 -65 -77 -58
-109 -129 -58 -129 18 0 25 -5 25 -19 0 -57 -314 -188 -384 -161 l-26 10 0
238 c0 131 3 307 7 390 l6 151 141 3 141 3 3 42 3 42 -143 3 -143 3 -3 37 c-3
33 2 43 37 75 50 48 61 96 35 149 -25 49 -62 75 -115 81 -32 3 -52 -1 -74 -15z
m105 -72 c24 -24 25 -48 4 -78 -30 -43 -114 -15 -114 38 0 28 35 60 65 60 14
0 34 -9 45 -20z"/>
<path d="M3693 3715 c-87 -37 -98 -177 -19 -229 22 -14 26 -24 26 -61 l0 -44
-137 -3 -138 -3 -3 -42 -3 -43 135 0 c134 0 136 0 137 -22 4 -62 -3 -677 -7
-703 -12 -69 -11 -68 -78 -63 -69 6 -193 54 -256 99 -46 34 -53 68 -17 92 21
14 21 17 7 43 -9 16 -36 43 -60 61 -25 18 -65 50 -89 70 -51 43 -66 39 -89
-23 -30 -82 -14 -227 31 -275 l21 -22 14 21 c8 12 22 22 32 22 10 0 57 -33
105 -74 81 -68 150 -109 285 -167 30 -13 74 -39 98 -57 l44 -33 43 40 c49 45
76 60 169 95 102 39 197 91 261 146 65 55 96 62 131 29 l23 -21 19 31 c26 42
35 127 21 193 -12 57 -44 128 -57 128 -5 0 -19 -12 -33 -26 -13 -15 -48 -44
-76 -65 -80 -59 -107 -125 -55 -131 42 -5 33 -29 -28 -70 -107 -72 -274 -126
-330 -107 l-31 11 7 382 c3 209 9 384 13 388 3 4 67 9 141 10 l135 3 3 43 3
42 -139 0 c-136 0 -140 1 -146 23 -11 43 -6 60 35 96 34 30 42 44 46 81 11
108 -92 179 -194 135z m99 -72 c22 -20 23 -61 1 -85 -34 -38 -103 -11 -103 40
0 54 62 81 102 45z"/>
<path d="M5225 3712 c-46 -30 -66 -57 -72 -100 -6 -45 13 -90 53 -121 19 -15
28 -33 31 -66 l6 -44 -144 -3 -144 -3 -3 -42 -3 -43 142 0 142 0 -7 -377 c-4
-208 -12 -385 -17 -395 -15 -27 -85 -23 -180 12 -96 35 -165 73 -179 100 -16
29 -12 51 10 57 34 9 24 47 -22 87 -73 63 -157 126 -168 126 -6 0 -21 -21 -32
-47 -38 -85 -23 -227 29 -286 17 -18 18 -17 34 4 23 31 51 21 134 -52 82 -71
151 -113 258 -156 43 -18 101 -49 129 -69 l51 -38 19 27 c25 35 81 67 193 112
114 46 195 92 265 149 61 51 92 57 126 25 l22 -21 16 25 c24 36 37 130 26 189
-11 57 -45 138 -58 138 -5 0 -19 -12 -33 -26 -13 -15 -48 -44 -76 -65 -77 -58
-109 -129 -58 -129 18 0 25 -5 25 -19 0 -57 -314 -188 -384 -161 l-26 10 0
238 c0 131 3 307 7 390 l6 151 141 3 141 3 3 42 3 42 -143 3 -143 3 -3 37 c-3
33 2 43 37 75 50 48 61 96 35 149 -25 49 -62 75 -115 81 -32 3 -52 -1 -74 -15z
m105 -72 c24 -24 25 -48 4 -78 -30 -43 -114 -15 -114 38 0 28 35 60 65 60 14
0 34 -9 45 -20z"/>
<path d="M20 1415 l0 -515 2990 0 2990 0 0 515 0 515 -2990 0 -2990 0 0 -515z"/>
</g>
</svg>
